<svg width="180" height="152" viewBox="0 0 180 152" fill="none" xmlns="http://www.w3.org/2000/svg">
<g clip-path="url(#clip0)">
<path d="M46.4993 39.2001C42.3993 38.3001 38.3993 38.2001 34.4993 39.7001C26.5993 42.7001 21.9993 48.5001 21.2993 57.0001C20.6993 63.7001 23.0993 69.2001 27.9993 73.7001C28.1993 73.9001 28.4993 74.2001 28.6993 74.4001C48.3993 94.0001 68.0993 113.7 87.6993 133.3C88.6993 134.3 89.6993 135.2 90.5993 136.2C92.9993 138.8 93.5993 141.8 92.5993 145.1C91.4993 148.5 89.0993 150.5 85.5993 151.2C85.3993 151.2 85.0993 151.2 84.8993 151.5C84.1993 151.5 83.3993 151.5 82.6993 151.5C82.4993 151.1 82.0993 151.2 81.7993 151.1C80.0993 150.7 78.5993 149.7 77.3993 148.5C63.7993 134.9 50.0993 121.3 36.4993 107.7C29.3993 100.6 22.1993 93.5001 15.0993 86.4001C8.99932 80.4001 5.09932 73.4001 3.69932 65.0001C2.19932 56.2001 3.59932 47.8001 7.99932 40.0001C8.19932 40.0001 8.29932 39.9001 8.49932 39.9001C13.5993 37.3001 18.8993 35.7001 24.5993 35.2001C29.5993 34.8001 34.3993 35.3001 39.1993 36.5001C41.4993 37.1001 43.5993 38.1001 45.8993 38.8001C46.1993 38.9001 46.2993 39.1001 46.4993 39.2001Z" fill="#2EA7FF"/>
<path d="M149.799 86.0001C144.999 90.4001 139.499 93.3001 133.199 94.7001C120.199 97.7001 108.399 94.9001 97.8988 86.7001C94.9988 84.4001 92.4988 81.6001 89.8988 79.0001C83.6988 72.9001 77.5988 66.8001 71.4988 60.7001C71.2988 60.5001 70.9988 60.3001 70.8988 59.9001C70.9988 59.1001 70.7988 58.5001 70.2988 58.0001C68.0988 55.7001 66.5988 52.9001 64.6988 50.3001C63.2988 48.3001 61.9988 46.3001 60.5988 44.3001C58.7988 41.7001 56.9988 38.9001 54.3988 36.9001C53.9988 36.6001 53.5988 36.3001 53.4988 35.9001C52.6988 33.6001 50.3988 32.9001 48.8988 31.3001C48.3988 30.7001 47.7988 30.0001 47.0988 29.5001C45.8988 28.6001 44.3988 28.0001 43.1988 27.1001C41.1988 25.7001 39.0988 24.6001 36.7988 23.8001C35.2988 23.2001 33.5988 22.9001 32.2988 21.8001C35.5988 20.8001 38.9988 20.5001 42.3988 20.7001C47.9988 21.0001 53.2988 22.3001 58.2988 24.9001C61.7988 26.7001 64.8988 28.9001 67.6988 31.7001C72.5988 36.6001 77.4988 41.4001 82.3988 46.3001C83.0988 47.0001 83.7988 47.7001 84.6988 48.2001C85.2988 48.8001 85.7988 49.4001 86.4988 50.0001C89.7988 52.9001 92.9988 55.7001 96.2988 58.6001C99.3988 61.4001 102.499 64.2001 105.699 66.9001C106.599 67.7001 107.299 68.8001 108.499 69.1001C110.399 70.8001 112.199 72.6001 114.499 73.8001C114.599 74.1001 114.799 74.1001 114.999 74.1001C115.099 74.2001 115.299 74.3001 115.399 74.3001C115.399 74.7001 115.599 74.9001 115.899 75.1001C122.299 79.2001 129.099 82.3001 136.399 84.1001C140.899 85.2001 145.399 85.6001 149.799 86.0001Z" fill="#1CE0E0"/>
<path d="M97.1992 26.7002C99.0992 24.5002 101.499 23.1002 103.899 21.7002C109.599 18.4002 115.799 16.7002 122.399 16.5002C129.199 16.3002 135.599 17.7002 141.599 20.7002C148.699 24.3002 154.199 29.6002 158.299 36.5002C162.499 43.6002 164.099 51.3002 163.399 59.4002C162.899 65.3002 161.099 70.9002 158.199 76.1002C158.099 76.3002 157.899 76.4002 157.799 76.6002C156.599 76.3002 155.499 75.8002 154.299 75.6002C151.299 75.2002 148.199 74.8002 145.199 74.6002C141.699 74.3002 138.399 73.6002 135.099 72.6002C135.099 72.5002 135.199 72.4002 135.199 72.4002C139.899 69.0002 142.599 64.4002 143.399 58.6002C143.999 53.5002 142.699 49.0002 139.899 44.8002C138.199 42.2002 135.799 40.5002 133.299 38.9002C133.599 38.5002 133.199 38.4002 132.999 38.3002C125.799 32.7002 117.699 29.1002 108.599 27.6002C104.799 26.9002 100.999 26.8002 97.1992 26.7002Z" fill="#BDFFD7"/>
<path d="M108.499 69.0002C107.299 68.6002 106.599 67.5002 105.699 66.8002C102.499 64.1002 99.3992 61.3002 96.2992 58.5002C92.9992 55.6002 89.7992 52.8002 86.4992 49.9002C85.8992 49.4002 85.2992 48.7002 84.6992 48.1002C85.5992 44.2002 86.8992 40.5002 88.7992 37.0002C88.9992 36.7002 89.1992 36.5002 89.3992 36.2002C89.4992 36.9002 90.1992 37.1002 90.6992 37.2002C92.9992 37.6002 95.1992 38.5002 97.6992 38.4002C101.299 38.3002 104.999 38.6002 108.499 39.3002C109.599 39.5002 110.999 39.0002 111.699 40.3002C111.299 40.6002 110.999 41.0002 110.599 41.3002C104.199 47.1002 102.199 55.8002 105.499 63.8002C106.299 65.7002 107.599 67.3002 108.499 69.0002Z" fill="#34E89E"/>
<path d="M111.8 40.4004C111.1 39.0004 109.6 39.6004 108.6 39.4004C105 38.6004 101.4 38.4004 97.8 38.5004C95.3 38.5004 93.1 37.7004 90.8 37.3004C90.3 37.2004 89.6 37.0004 89.5 36.3004C90.4 34.3004 91.7 32.5004 93.2 31.0004C94.5 29.6004 95.6 27.9004 97.3 26.9004C101.1 26.9004 104.8 27.1004 108.6 27.7004C117.7 29.2004 125.8 32.8004 133 38.4004C133.2 38.5004 133.6 38.6004 133.3 39.0004C130.9 37.7004 128.3 36.9004 125.5 36.7004C120.4 36.1004 115.9 37.5004 111.8 40.4004Z" fill="#34E89E"/>
<path d="M32.3988 21.7002C33.6988 22.8002 35.2988 23.2002 36.8988 23.7002C39.1988 24.5002 41.2988 25.7002 43.2988 27.0002C44.5988 27.9002 45.9988 28.4002 47.1988 29.4002C47.8988 29.9002 48.4988 30.6002 48.9988 31.2002C50.4988 32.8002 52.7988 33.5002 53.5988 35.8002C53.6988 36.2002 54.1988 36.5002 54.4988 36.8002C57.0988 38.8002 58.8988 41.6002 60.6988 44.2002C62.0988 46.2002 63.3988 48.3002 64.7988 50.2002C66.5988 52.8002 68.0988 55.6002 70.3988 57.9002C70.8988 58.4002 71.0988 59.1002 70.9988 59.8002C70.3988 59.6002 70.0988 59.1002 69.6988 58.7002C65.5988 54.6002 61.3988 50.5002 57.3988 46.4002C54.2988 43.2002 50.8988 40.5002 46.5988 39.2002C46.3988 39.0002 46.2988 38.9002 46.0988 38.7002C46.6988 38.1002 46.0988 37.8002 45.7988 37.5002C44.1988 36.1002 42.2988 35.1002 40.6988 33.8002C37.5988 31.1002 33.6988 30.1002 29.9988 28.8002C26.7988 27.6002 23.1988 27.7002 19.7988 27.2002C23.5988 24.5002 27.7988 22.6002 32.3988 21.7002Z" fill="#1CE0E0"/>
<path d="M135 72.5C138.3 73.5 141.7 74.2 145.1 74.5C148.2 74.8 151.2 75.1 154.2 75.5C155.4 75.7 156.6 76.1 157.7 76.5C155.6 80.1 153.1 83.4 149.8 86C145.3 85.6 140.8 85.2 136.5 84C129.2 82.1 122.4 79.1 116 75C115.7 74.8 115.5 74.6 115.5 74.2C115.9 74.2 116.2 74.3 116.6 74.5C120.1 75.9 123.7 76 127.4 75.5C130.1 75.1 132.6 73.9 135 72.5Z" fill="#BDFFD7"/>
<path d="M19.9999 27.001C23.3999 27.501 27.1999 27.301 30.4999 28.501C34.4999 29.401 38.0999 31.401 41.1999 34.101C42.7999 35.501 44.6999 36.401 46.2999 37.801C46.5999 38.101 47.5999 38.6012 46.9999 39.2012C44.7999 38.5012 41.7999 37.8012 39.4999 37.2012C34.6999 36.0012 30.1999 35.001 25.2999 35.401C19.5999 35.901 14 37.401 9 40.001C8.7 40.101 8.2 40.001 8 40.001C10.9 34.801 14.9999 30.201 19.9999 27.001Z" fill="#1CE0E0"/>
<path d="M114.5 73.7002C114.7 73.7002 114.9 73.8002 115 74.0002C114.8 74.0002 114.6 74.0002 114.5 73.7002Z" fill="#BAE0C6"/>
</g>
<defs>
<clipPath id="clip0">
<rect width="180" height="151.5" fill="white"/>
</clipPath>
</defs>
</svg>
