<svg width="37" height="36" viewBox="0 0 37 36" fill="none" xmlns="http://www.w3.org/2000/svg">
<path d="M32.3658 6.00077C32.2295 5.98672 32.0921 5.98672 31.9558 6.00077H3.95578C3.77633 6.00353 3.59806 6.03044 3.42578 6.08077L17.8758 20.4708L32.3658 6.00077Z" fill="black"/>
<path d="M33.8448 7.39062L19.2848 21.8906C18.9101 22.2631 18.4032 22.4722 17.8748 22.4722C17.3465 22.4722 16.8396 22.2631 16.4648 21.8906L2.03484 7.50063C1.99048 7.66367 1.96696 7.83167 1.96484 8.00063V28.0006C1.96484 28.5311 2.17556 29.0398 2.55063 29.4148C2.9257 29.7899 3.43441 30.0006 3.96484 30.0006H31.9648C32.4953 30.0006 33.004 29.7899 33.3791 29.4148C33.7541 29.0398 33.9648 28.5311 33.9648 28.0006V8.00063C33.9569 7.79228 33.9164 7.58646 33.8448 7.39062ZM5.33484 28.0006H3.94484V26.5706L11.2148 19.3606L12.6248 20.7706L5.33484 28.0006ZM31.9448 28.0006H30.5448L23.2548 20.7706L24.6648 19.3606L31.9348 26.5706L31.9448 28.0006Z" fill="black"/>
</svg>
